<svg xmlns="http://www.w3.org/2000/svg" version="1.1" xmlns:xlink="http://www.w3.org/1999/xlink" xmlns:svgjs="http://svgjs.dev/svgjs" width="128" height="128" viewBox="0 0 128 128"><g transform="matrix(0.8046875,0,0,0.8046875,12.35633770356992,9.55829967105263)"><svg viewBox="0 0 89 95" data-background-color="#ffffff" preserveAspectRatio="xMidYMid meet" height="136" width="128" xmlns="http://www.w3.org/2000/svg" xmlns:xlink="http://www.w3.org/1999/xlink"><g id="tight-bounds" transform="matrix(1,0,0,1,0.12413538235220756,-0.24049999999999727)"><svg viewBox="0 0 88.75172923529558 95.48099999999998" height="95.48099999999998" width="88.75172923529558"><g><svg viewBox="0 0 88.75172923529558 95.48099999999998" height="95.48099999999998" width="88.75172923529558"><g><svg viewBox="0 0 88.75172923529558 95.48099999999998" height="95.48099999999998" width="88.75172923529558"><g id="textblocktransform"><svg viewBox="0 0 88.75172923529558 95.48099999999998" height="95.48099999999998" width="88.75172923529558" id="textblock"><g><svg viewBox="0 0 88.75172923529558 95.48099999999998" height="95.48099999999998" width="88.75172923529558"><g><svg viewBox="0 0 88.75172923529558 95.48099999999998" height="95.48099999999998" width="88.75172923529558"><g><svg xmlns="http://www.w3.org/2000/svg" xmlns:xlink="http://www.w3.org/1999/xlink" version="1.1" x="0" y="0" viewBox="4.640787733012606 2.063579539224866 86.23586808539271 92.77438300759164" enable-background="new 0 0 100 100" xml:space="preserve" height="95.48099999999998" width="88.75172923529558" class="icon-icon-0" data-fill-palette-color="accent" id="icon-0"><path fill-rule="evenodd" clip-rule="evenodd" d="M58.034 8.249l1.431-1.981c1.271-1.395 2.689-2.397 4.256-3.008 1.64 2.421 3.033 4.867 4.183 7.336 1.811 3.938 2.641 7.252 2.494 9.941-0.024 0.147-0.099 0.294-0.221 0.441-0.146 0.171-0.27 0.282-0.367 0.33-2.078 0.661-4.12 0.832-6.126 0.514-3.032-0.538-5.649-2.213-7.85-5.025C56.224 13.152 56.958 10.303 58.034 8.249zM77.403 9.459c-0.343-0.343-0.758-0.513-1.247-0.513-0.487 0-0.904 0.17-1.246 0.513-0.342 0.342-0.514 0.758-0.514 1.248 0 0.489 0.172 0.905 0.514 1.247 0.342 0.343 0.759 0.514 1.246 0.514 0.489 0 0.904-0.171 1.247-0.514 0.343-0.342 0.514-0.758 0.514-1.247C77.917 10.217 77.746 9.802 77.403 9.459zM65.721 3.48c3.291-1.462 6.342-1.792 9.152-0.991 2.811 0.802 4.814 2.661 6.017 5.576l8.18 2.018c0.516 0.098 0.954 0.378 1.32 0.843 0.368 0.44 0.527 0.917 0.478 1.431-0.219 4.06-1.968 7.178-5.246 9.354-2.151 1.443-4.731 2.373-7.741 2.789-0.513 0.073-0.964 0.306-1.356 0.696-0.189 0.178-0.342 0.368-0.459 0.569-0.132 0.235-0.211 0.486-0.238 0.752v0.073l-1.137 7.888c0.199 1.552 0.849 3.111 1.944 4.677 1.103 1.568 2.062 3.416 2.879 5.539-0.539-0.162-1.045-0.351-1.521-0.568-0.636-0.292-1.162-0.513-1.577-0.66 0.415 0.562 0.905 1.651 1.466 3.265 0.612 1.736 0.919 3.031 0.919 3.89 0 0.317-0.063 0.806-0.184 1.465-0.024-0.342-0.27-0.684-0.735-1.026-0.538-0.342-0.904-0.61-1.1-0.807 0.195 1.688 0.11 3.46-0.257 5.32-0.391 1.955-1.039 3.729-1.944 5.318h-0.183c0-0.319-0.098-0.782-0.294-1.395-0.195-0.588-0.281-1.038-0.256-1.355-0.147 0.831-1.015 2.408-2.605 4.731-0.443 0.653-0.816 1.281-1.12 1.888-0.06 0.477-0.113 0.946-0.164 1.414-0.4 3.789-0.608 7.165-0.624 10.123-0.098 4.647 0.748 7.9 2.532 9.76 2.348 2.397 3.399 4.377 3.154 5.942-0.465 1.59-1.97 2.348-4.513 2.275-3.839 0-6.726-2.263-8.657-6.785-0.083-0.187-0.199-0.493-0.349-0.919 2.824-11.91 0.839-18.488-5.962-19.735-4.77-0.858-8.865 0.658-12.289 4.547 2.886-3.008 6.372-4.108 10.456-3.3 5.445 1.103 7.316 6.439 5.612 16.013-0.574 1.582-1.211 3.077-1.908 4.494 3.424 0 5.368 0.818 5.835 2.455 0.243 0.834 0.157 1.652-0.259 2.46-3.791 1.688-10.027 1.774-18.709 0.258-4.429-0.795-7.888-1.13-10.381-1.009v-0.021c-8.048-0.412-15.078-2.682-21.095-6.803-6.016-4.123-8.706-10.585-8.07-19.39l4.183 2.752c-2.959-5.015-2.959-10.444 0-16.288l2.127 3.704c-1.051-5.062 0.771-10.014 5.466-14.857v3.888c2.446-2.224 3.327-6.664 2.642-13.315 9.146 5.087 10.003 13.781 2.568 26.083-4.109 7.632-4.757 14.455-1.945 20.471 1.586 3.366 3.28 5.696 5.082 6.987 0.495-11.813 3.125-21.768 7.888-29.862 1.682-2.859 4.757-7.353 9.226-13.48 4.807-5.989 7.705-9.547 8.695-10.676 2.86-3.252 4.292-6.285 4.292-9.098 0-0.93 0.049-2.152 0.147-3.668 2.836 2.959 6.187 4.438 10.052 4.438 1.613 0 3.179-0.256 4.694-0.771 0.489-0.146 0.905-0.453 1.247-0.917 0.392-0.464 0.587-0.954 0.587-1.467 0.195-2.813-0.587-6.2-2.348-10.163C68.372 8.061 67.168 5.787 65.721 3.48z" fill="#528265" data-fill-palette-color="accent"></path></svg></g></svg></g></svg></g></svg></g></svg></g><g></g></svg></g><defs></defs></svg><rect width="88.75172923529558" height="95.48099999999998" fill="none" stroke="none" visibility="hidden"></rect></g></svg></g></svg>